#N canvas 434 42 877 629 12;
#X obj 154 282 bng 15 250 50 0 empty empty empty 17 7 0 10 -262144
-1 -1;
#X obj 184 369 delay 4000;
#X obj 184 418 delay 4000;
#X obj 184 526 delay 8000;
#X msg 75 317 stop;
#X obj 384 526 s magentaBool;
#X obj 517 525 s pdBool;
#X obj 384 440 tgl 15 0 empty empty empty 17 7 0 10 -262144 -1 -1 0
1;
#X obj 516 440 tgl 15 0 empty empty empty 17 7 0 10 -262144 -1 -1 0
1;
#X msg 224 469 0;
#X obj 75 388 s stop;
#X obj 439 372 r stop;
#X msg 75 359 0;
#X text 706 14 terry feng;
#X obj 97 176 inlet;
#X obj 285 177 inlet;
#X text 567 228 0 - 4000;
#X text 668 173 CYCLE;
#X text 546 249 4000 - 8000;
#X text 539 270 8000 - 16000;
#X text 644 38 ambience controller;
#X text 232 64 This is the controller for magentaAmbience;
#X text 747 229 0;
#X text 747 250 1;
#X text 747 271 0;
#X text 666 270 0;
#X text 666 249 0;
#X text 666 228 1;
#X text 634 201 magentaBool;
#X text 734 202 pdBool;
#X connect 0 0 1 0;
#X connect 0 0 7 0;
#X connect 1 0 2 0;
#X connect 1 0 7 0;
#X connect 1 0 8 0;
#X connect 2 0 3 0;
#X connect 2 0 9 0;
#X connect 3 0 0 0;
#X connect 4 0 1 0;
#X connect 4 0 2 0;
#X connect 4 0 3 0;
#X connect 4 0 12 0;
#X connect 7 0 5 0;
#X connect 8 0 6 0;
#X connect 9 0 7 0;
#X connect 9 0 8 0;
#X connect 11 0 7 0;
#X connect 11 0 8 0;
#X connect 12 0 10 0;
#X connect 14 0 4 0;
#X connect 15 0 0 0;
