#N canvas 202 170 790 417 12;
#X obj 221 330 bng 15 250 50 0 empty empty empty 17 7 0 10 -262144
-1 -1;
#X obj 249 302 bng 15 250 50 0 empty empty empty 17 7 0 10 -33289 -1
-1;
#X obj 278 330 bng 15 250 50 0 empty empty empty 17 7 0 10 -262144
-1 -1;
#X obj 307 302 bng 15 250 50 0 empty empty empty 17 7 0 10 -33289 -1
-1;
#X obj 336 330 bng 15 250 50 0 empty empty empty 17 7 0 10 -262144
-1 -1;
#X obj 365 330 bng 15 250 50 0 empty empty empty 17 7 0 10 -262144
-1 -1;
#X obj 394 302 bng 15 250 50 0 empty empty empty 17 7 0 10 -33289 -1
-1;
#X obj 423 330 bng 15 250 50 0 empty empty empty 17 7 0 10 -262144
-1 -1;
#X obj 452 302 bng 15 250 50 0 empty empty empty 17 7 0 10 -33289 -1
-1;
#X obj 481 330 bng 15 250 50 0 empty empty empty 17 7 0 10 -262144
-1 -1;
#X obj 510 302 bng 15 250 50 0 empty empty empty 17 7 0 10 -33289 -1
-1;
#X obj 539 330 bng 15 250 50 0 empty empty empty 17 7 0 10 -262144
-1 -1;
#X obj 568 330 bng 15 250 50 0 empty empty empty 17 7 0 10 -262144
-1 -1;
#X text 194 329 C4;
#X text 589 329 C5;
#X obj 221 374 midiKeyboard, f 50;
#X obj 40 156 pack 0 0 0;
#X obj 40 218 dac~;
#X obj 40 53 notein;
#X obj 40 132 - 1;
#X obj 40 90 poly 8 1;
#X obj 40 180 clone magentaInput 8;
#X connect 0 0 15 0;
#X connect 1 0 15 1;
#X connect 2 0 15 2;
#X connect 3 0 15 3;
#X connect 4 0 15 4;
#X connect 5 0 15 5;
#X connect 6 0 15 6;
#X connect 7 0 15 7;
#X connect 8 0 15 8;
#X connect 9 0 15 9;
#X connect 10 0 15 10;
#X connect 11 0 15 11;
#X connect 12 0 15 12;
#X connect 16 0 21 0;
#X connect 18 0 20 0;
#X connect 18 1 20 1;
#X connect 19 0 16 0;
#X connect 20 0 19 0;
#X connect 20 1 16 1;
#X connect 20 2 16 2;
#X connect 21 0 17 0;
#X connect 21 0 17 1;
