#N canvas 202 170 793 414 12;
#X obj 221 330 bng 15 250 50 0 empty empty empty 17 7 0 10 -262144
-1 -1;
#X obj 249 302 bng 15 250 50 0 empty empty empty 17 7 0 10 -33289 -1
-1;
#X obj 278 330 bng 15 250 50 0 empty empty empty 17 7 0 10 -262144
-1 -1;
#X obj 307 302 bng 15 250 50 0 empty empty empty 17 7 0 10 -33289 -1
-1;
#X obj 336 330 bng 15 250 50 0 empty empty empty 17 7 0 10 -262144
-1 -1;
#X obj 365 330 bng 15 250 50 0 empty empty empty 17 7 0 10 -262144
-1 -1;
#X obj 394 302 bng 15 250 50 0 empty empty empty 17 7 0 10 -33289 -1
-1;
#X obj 423 330 bng 15 250 50 0 empty empty empty 17 7 0 10 -262144
-1 -1;
#X obj 452 302 bng 15 250 50 0 empty empty empty 17 7 0 10 -33289 -1
-1;
#X obj 481 330 bng 15 250 50 0 empty empty empty 17 7 0 10 -262144
-1 -1;
#X obj 510 302 bng 15 250 50 0 empty empty empty 17 7 0 10 -33289 -1
-1;
#X obj 539 330 bng 15 250 50 0 empty empty empty 17 7 0 10 -262144
-1 -1;
#X obj 568 330 bng 15 250 50 0 empty empty empty 17 7 0 10 -262144
-1 -1;
#X text 189 329 C4;
#X text 596 329 C5;
#X obj 221 374 midiKeyboard, f 50;
#X connect 0 0 15 0;
#X connect 1 0 15 1;
#X connect 2 0 15 2;
#X connect 3 0 15 3;
#X connect 4 0 15 4;
#X connect 5 0 15 5;
#X connect 6 0 15 6;
#X connect 7 0 15 7;
#X connect 8 0 15 8;
#X connect 9 0 15 9;
#X connect 10 0 15 10;
#X connect 11 0 15 11;
#X connect 12 0 15 12;
