#N canvas 228 250 586 404 12;
#X obj 247 118 inlet;
#X obj 153 170 route 0 1 2 3 4 5 6 7, f 33;
#X msg 105 227 60;
#X msg 143 227 62;
#X msg 182 227 64;
#X msg 221 227 65;
#X msg 267 227 67;
#X msg 308 227 69;
#X msg 346 227 71;
#X msg 389 227 72;
#X obj 243 312 outlet;
#X text 51 31 Picks a note from the C Major Scale;
#X text 467 17 terry feng;
#X text 495 37 CMajor;
#X text 52 60 C4 - C5;
#X connect 0 0 1 0;
#X connect 1 0 2 0;
#X connect 1 1 3 0;
#X connect 1 2 4 0;
#X connect 1 3 5 0;
#X connect 1 4 6 0;
#X connect 1 5 7 0;
#X connect 1 6 8 0;
#X connect 1 7 9 0;
#X connect 2 0 10 0;
#X connect 3 0 10 0;
#X connect 4 0 10 0;
#X connect 5 0 10 0;
#X connect 6 0 10 0;
#X connect 7 0 10 0;
#X connect 8 0 10 0;
#X connect 9 0 10 0;
