#N canvas 761 141 589 524 16;
#X floatatom 60 109 5 0 0 0 - - -;
#X floatatom 124 112 5 0 0 0 - - -;
#X floatatom 195 113 5 0 0 0 - - -;
#X obj 59 162 mtof;
#X floatatom 59 186 5 0 0 0 - - -;
#X obj 178 257 osc~;
#X obj 256 198 / 128;
#X floatatom 256 222 5 0 0 0 - - -;
#X obj 142 366 dac~;
#X obj 178 298 *~;
#X obj 274 327 line~;
#X msg 278 298 \$1 50;
#X obj 281 263 tgl 15 0 empty empty empty 17 7 0 10 -262144 -1 -1 0
1;
#X obj 110 66 notein;
#X connect 0 0 3 0;
#X connect 1 0 6 0;
#X connect 3 0 4 0;
#X connect 4 0 5 0;
#X connect 5 0 9 0;
#X connect 6 0 7 0;
#X connect 7 0 12 0;
#X connect 9 0 8 0;
#X connect 9 0 8 1;
#X connect 10 0 9 1;
#X connect 11 0 10 0;
#X connect 12 0 11 0;
#X connect 13 0 0 0;
#X connect 13 1 1 0;
#X connect 13 2 2 0;
