#N canvas 318 325 919 570 12;
#X obj 59 476 bng 15 250 50 0 empty empty empty 17 7 0 10 -262144 -1
-1;
#X obj 87 448 bng 15 250 50 0 empty empty empty 17 7 0 10 -128992 -1
-1;
#X obj 116 476 bng 15 250 50 0 empty empty empty 17 7 0 10 -262144
-1 -1;
#X obj 145 448 bng 15 250 50 0 empty empty empty 17 7 0 10 -128992
-1 -1;
#X obj 174 476 bng 15 250 50 0 empty empty empty 17 7 0 10 -262144
-1 -1;
#X obj 203 476 bng 15 250 50 0 empty empty empty 17 7 0 10 -262144
-1 -1;
#X obj 232 448 bng 15 250 50 0 empty empty empty 17 7 0 10 -128992
-1 -1;
#X obj 261 476 bng 15 250 50 0 empty empty empty 17 7 0 10 -262144
-1 -1;
#X obj 290 448 bng 15 250 50 0 empty empty empty 17 7 0 10 -128992
-1 -1;
#X obj 319 476 bng 15 250 50 0 empty empty empty 17 7 0 10 -262144
-1 -1;
#X obj 348 448 bng 15 250 50 0 empty empty empty 17 7 0 10 -128992
-1 -1;
#X obj 377 476 bng 15 250 50 0 empty empty empty 17 7 0 10 -262144
-1 -1;
#X obj 406 476 bng 15 250 50 0 empty empty empty 17 7 0 10 -262144
-1 -1;
#X text 32 475 C4;
#X text 427 475 C5;
#X obj 59 520 midiKeyboard, f 50;
#X obj 594 369 pack 0 0 0;
#X obj 596 496 dac~;
#X obj 594 266 notein;
#X obj 594 345 - 1;
#X obj 594 303 poly 8 1;
#X text 659 304 8 voice polyphony;
#X text 805 34 terry feng;
#X text 594 195 MAGENTA OUTPUT;
#X text 798 54 magentaUser;
#X text 804 75 12/10/2020;
#X obj 60 253 key;
#X text 56 188 MAGENTA INPUT;
#X obj 60 277 spigot;
#X floatatom 60 301 5 0 0 0 - - -;
#X obj 139 253 tgl 15 0 empty empty empty 17 7 0 10 -262144 -1 -1 1
1;
#X text 156 252 keyboard on/off;
#X obj 60 343 route 97 119 115 101 100 102 116 103 121 104 117 106
107, f 54;
#X obj 435 390 bng 15 250 50 0 empty empty empty 17 7 0 10 -262144
-1 -1;
#X text 202 39 MIDI Controller and Receiver for controlling sending
MIDI to Magenta and receiving MIDI from Magenta.;
#X text 202 101 Magenta will start up a metronome (120 bpm) and the
user shall send MIDI input to Magenta. After 2 bars of silence \, Magenta
will respond to the input given \, generating new melodies and will
respond for as long as the input given.;
#X text 201 84 CALL AND RESPONSE:;
#X text 728 394 MIDI to Oscillator;
#X text 542 344 offset;
#X obj 594 393 clone midiSynth 8;
#X text 155 271 check Keybinds.jpg for keyboard guide;
#X text 455 389 if no match;
#X obj 710 429 unpack 0 0;
#X floatatom 777 453 5 0 0 0 - - -;
#X floatatom 710 453 5 0 0 0 - - -;
#X text 779 475 Magenta MIDI Output;
#X text 707 476 Poly Voice Channel;
#X text 102 302 ASCII value;
#X connect 0 0 15 0;
#X connect 1 0 15 1;
#X connect 2 0 15 2;
#X connect 3 0 15 3;
#X connect 4 0 15 4;
#X connect 5 0 15 5;
#X connect 6 0 15 6;
#X connect 7 0 15 7;
#X connect 8 0 15 8;
#X connect 9 0 15 9;
#X connect 10 0 15 10;
#X connect 11 0 15 11;
#X connect 12 0 15 12;
#X connect 16 0 39 0;
#X connect 18 0 20 0;
#X connect 18 1 20 1;
#X connect 19 0 16 0;
#X connect 20 0 19 0;
#X connect 20 1 16 1;
#X connect 20 2 16 2;
#X connect 26 0 28 0;
#X connect 28 0 29 0;
#X connect 29 0 32 0;
#X connect 30 0 28 1;
#X connect 32 0 0 0;
#X connect 32 1 1 0;
#X connect 32 2 2 0;
#X connect 32 3 3 0;
#X connect 32 4 4 0;
#X connect 32 5 5 0;
#X connect 32 6 6 0;
#X connect 32 7 7 0;
#X connect 32 8 8 0;
#X connect 32 9 9 0;
#X connect 32 10 10 0;
#X connect 32 11 11 0;
#X connect 32 12 12 0;
#X connect 32 13 33 0;
#X connect 39 0 17 0;
#X connect 39 0 17 1;
#X connect 39 1 42 0;
#X connect 42 0 44 0;
#X connect 42 1 43 0;
