#N canvas 347 46 957 605 16;
#X floatatom 214 263 5 0 0 0 - - -;
#X floatatom 278 263 5 0 0 0 - - -;
#X floatatom 415 263 5 0 0 0 - - -;
#X obj 214 297 mtof;
#X floatatom 214 334 5 0 0 0 - - -;
#X obj 141 415 osc~;
#X obj 278 296 / 128;
#X floatatom 278 332 5 0 0 0 - - -;
#X obj 141 444 *~;
#X obj 278 407 line~;
#X text 123 262 MIDI val;
#X text 163 334 freq;
#X text 338 262 vel;
#X text 473 262 MIDI Channel;
#X text 337 333 vel / 1;
#X obj 250 152 inlet;
#X obj 250 181 unpack 1 1 1;
#X obj 141 502 outlet~;
#X text 825 15 terry feng;
#X text 796 44 magenta input;
#X text 106 48 Magenta Input can be used to handle Midi input from
magenta or general MIDI input;
#X obj 290 502 outlet;
#X text 76 502 Audio;
#X text 345 379 default oscillator;
#X msg 278 378 \$1 50;
#X text 357 501 MIDI val output;
#X connect 0 0 3 0;
#X connect 0 0 21 0;
#X connect 1 0 6 0;
#X connect 3 0 4 0;
#X connect 4 0 5 0;
#X connect 5 0 8 0;
#X connect 6 0 7 0;
#X connect 7 0 24 0;
#X connect 8 0 17 0;
#X connect 9 0 8 1;
#X connect 15 0 16 0;
#X connect 16 0 0 0;
#X connect 16 1 1 0;
#X connect 16 2 2 0;
#X connect 24 0 9 0;
