#N canvas 100 22 1148 984 12;
#X text 671 466 1 octave;
#X floatatom 603 513 5 0 0 0 - - -;
#X text 645 512 MIDI Value;
#X obj 603 442 bng 15 250 50 0 empty empty empty 17 7 0 10 -262144
-1 -1;
#X text 623 409 Note Generator;
#X floatatom 847 467 5 0 0 0 - - -;
#X obj 690 629 spigot;
#X floatatom 690 653 5 0 0 0 - - -;
#X obj 847 490 route 0;
#X obj 847 514 t b b;
#X obj 847 443 random 3;
#X text 908 490 if 0;
#X obj 879 584 tgl 15 0 empty empty empty 17 7 0 10 -262144 -1 -1 0
1;
#X obj 799 549 delay 200;
#X text 901 582 pass thru;
#X text 738 654 MIDI Value;
#X obj 132 340 pack 0 0 0;
#X obj 449 934 dac~;
#X obj 132 237 notein;
#X obj 132 316 - 1;
#X obj 132 274 poly 8 1;
#X text 197 275 8 voice polyphony;
#X text 266 365 MIDI to Oscillator;
#X text 80 315 offset;
#X obj 132 364 clone midiSynth 8;
#X obj 248 400 unpack 0 0;
#X floatatom 315 424 5 0 0 0 - - -;
#X floatatom 248 424 5 0 0 0 - - -;
#X text 246 446 Poly;
#X text 246 465 Voice;
#X text 246 484 Channel;
#X text 316 446 Magenta;
#X text 316 465 MIDI;
#X text 316 484 Output;
#X obj 589 803 midiOut;
#X obj 589 766 spigot;
#X text 917 442 33% FALSE \, 67% TRUE;
#X floatatom 894 762 5 0 0 0 - - -;
#X text 828 763 MIDI Val;
#X obj 894 809 osc~;
#X obj 894 785 mtof;
#X text 855 708 to DAC;
#X obj 672 749 tgl 15 0 empty empty empty 17 7 0 10 -262144 -1 -1 0
1;
#X obj 603 489 CMajor;
#X obj 603 465 random 8;
#X obj 847 420 bng 15 250 50 0 empty empty empty 17 7 0 10 -262144
-1 -1;
#X obj 724 367 t b b;
#X obj 724 323 metro 250;
#X obj 724 347 bng 15 250 50 0 empty empty empty 17 7 0 10 -262144
-1 -1;
#X obj 724 303 tgl 15 0 empty empty empty 17 7 0 10 -262144 -1 -1 0
1;
#X obj 673 721 r magentaBool;
#X obj 963 810 line~;
#X obj 995 730 tgl 15 0 empty empty empty 17 7 0 10 -262144 -1 -1 0
1;
#X msg 963 785 \$1 50;
#X obj 649 885 *~;
#X obj 963 759 * 0.25;
#X text 554 704 to Magenta;
#X obj 995 702 r pdBool;
#X text 853 398 Note On/Off Control;
#X text 748 302 metro on/off;
#X obj 725 226 bng 15 250 50 0 empty empty empty 17 7 0 10 -262144
-1 -1;
#X msg 645 198 stop;
#X text 747 224 START;
#X text 144 187 MAGENTA INPUT;
#X text 675 156 PD OUTPUT;
#X msg 645 223 0;
#X obj 566 301 ambienceController;
#X text 80 105 This file works best with Magenta's Attention RNN and
will be able to also apply principles of LTSM for melody generation.
;
#X text 1008 15 terry feng;
#X text 966 36 Magenta Ambience;
#X text 1009 59 12/13/2020;
#X text 75 28 Magenta Ambience is a file that will sequence random
notes from the C Major Scale (PD) and send them to Magenta to repeat
and extract patterns/repetition to generate output.;
#X connect 1 0 6 0;
#X connect 3 0 44 0;
#X connect 5 0 8 0;
#X connect 6 0 7 0;
#X connect 7 0 35 0;
#X connect 7 0 37 0;
#X connect 8 1 9 0;
#X connect 9 0 13 0;
#X connect 9 1 12 0;
#X connect 10 0 5 0;
#X connect 12 0 6 1;
#X connect 13 0 12 0;
#X connect 16 0 24 0;
#X connect 18 0 20 0;
#X connect 18 1 20 1;
#X connect 19 0 16 0;
#X connect 20 0 19 0;
#X connect 20 1 16 1;
#X connect 20 2 16 2;
#X connect 24 0 17 0;
#X connect 24 0 17 1;
#X connect 24 1 25 0;
#X connect 25 0 27 0;
#X connect 25 1 26 0;
#X connect 35 0 34 0;
#X connect 37 0 40 0;
#X connect 39 0 54 0;
#X connect 40 0 39 0;
#X connect 42 0 35 1;
#X connect 43 0 1 0;
#X connect 44 0 43 0;
#X connect 45 0 10 0;
#X connect 46 0 3 0;
#X connect 46 1 45 0;
#X connect 47 0 48 0;
#X connect 48 0 46 0;
#X connect 49 0 47 0;
#X connect 50 0 42 0;
#X connect 51 0 54 1;
#X connect 52 0 55 0;
#X connect 53 0 51 0;
#X connect 54 0 17 0;
#X connect 54 0 17 1;
#X connect 55 0 53 0;
#X connect 57 0 52 0;
#X connect 60 0 49 0;
#X connect 60 0 66 1;
#X connect 61 0 65 0;
#X connect 61 0 66 0;
#X connect 65 0 49 0;
