#N canvas 199 141 627 523 12;
#X floatatom 152 211 5 0 0 0 - - -;
#X msg 177 270 80;
#X msg 204 300 300;
#X obj 151 330 makenote;
#X obj 151 383 noteout;
#X msg 361 300 2;
#X text 361 269 channel;
#X text 194 210 note;
#X text 211 269 vel;
#X text 229 299 duration (ms);
#X obj 152 131 inlet;
#X text 197 131 Midi Note;
#X text 512 14 terry feng;
#X text 505 34 midi output;
#X connect 0 0 5 0;
#X connect 0 0 3 0;
#X connect 0 0 1 0;
#X connect 1 0 3 1;
#X connect 1 0 2 0;
#X connect 2 0 3 2;
#X connect 3 0 4 0;
#X connect 3 1 4 1;
#X connect 5 0 4 2;
#X connect 10 0 0 0;
