#N canvas 189 103 740 527 12;
#X msg 30 242 60;
#X obj 350 399 midiOut;
#X obj 30 194 inlet;
#X msg 83 242 61;
#X msg 133 242 62;
#X msg 186 242 63;
#X msg 240 242 64;
#X msg 294 242 65;
#X msg 348 242 66;
#X msg 401 242 67;
#X msg 452 242 68;
#X msg 511 242 69;
#X msg 568 242 70;
#X msg 621 242 71;
#X msg 676 242 72;
#X obj 83 194 inlet;
#X obj 133 194 inlet;
#X obj 186 194 inlet;
#X obj 240 194 inlet;
#X obj 294 194 inlet;
#X obj 348 194 inlet;
#X obj 401 194 inlet;
#X obj 452 194 inlet;
#X obj 511 194 inlet;
#X obj 568 194 inlet;
#X obj 621 194 inlet;
#X obj 676 194 inlet;
#X text 698 158 Bang;
#X text 658 277 MIDI value;
#X text 631 37 midiKeyboard;
#X text 188 67 MIDI keyboard abstraction for triggering MIDI notes
to be outputted from PD to Magenta (or general midi);
#X text 187 121 MIDI notes are from C4 to C5;
#X text 644 17 terry feng;
#X connect 0 0 1 0;
#X connect 2 0 0 0;
#X connect 3 0 1 0;
#X connect 4 0 1 0;
#X connect 5 0 1 0;
#X connect 6 0 1 0;
#X connect 7 0 1 0;
#X connect 8 0 1 0;
#X connect 9 0 1 0;
#X connect 10 0 1 0;
#X connect 11 0 1 0;
#X connect 12 0 1 0;
#X connect 13 0 1 0;
#X connect 14 0 1 0;
#X connect 15 0 3 0;
#X connect 16 0 4 0;
#X connect 17 0 5 0;
#X connect 18 0 6 0;
#X connect 19 0 7 0;
#X connect 20 0 8 0;
#X connect 21 0 9 0;
#X connect 22 0 10 0;
#X connect 23 0 11 0;
#X connect 24 0 12 0;
#X connect 25 0 13 0;
#X connect 26 0 14 0;
#X coords 0 0 500 1 0 0 0;
