#N canvas 93 49 957 605 16;
#X floatatom 320 268 5 0 0 0 - - -;
#X floatatom 384 268 5 0 0 0 - - -;
#X floatatom 521 268 5 0 0 0 - - -;
#X obj 320 302 mtof;
#X floatatom 320 339 5 0 0 0 - - -;
#X obj 247 420 osc~;
#X obj 384 301 / 128;
#X floatatom 384 337 5 0 0 0 - - -;
#X obj 247 449 *~;
#X obj 384 423 line~;
#X text 229 267 MIDI val;
#X text 269 339 freq;
#X text 444 267 vel;
#X text 579 267 MIDI Channel;
#X text 443 338 vel / 1;
#X obj 356 157 inlet;
#X obj 356 186 unpack 1 1 1;
#X obj 247 507 outlet~;
#X text 825 15 terry feng;
#X text 182 507 Audio;
#X text 450 393 default oscillator;
#X msg 384 394 \$1 50;
#X text 833 47 midiSynth;
#X obj 386 504 outlet;
#X obj 384 365 * 0.25;
#X text 106 48 midiSynth can be used to handle converting MIDI to audio.
Designed for Magenta but will work with general MIDI data;
#X connect 0 0 3 0;
#X connect 0 0 23 0;
#X connect 1 0 6 0;
#X connect 3 0 4 0;
#X connect 4 0 5 0;
#X connect 5 0 8 0;
#X connect 6 0 7 0;
#X connect 7 0 24 0;
#X connect 8 0 17 0;
#X connect 9 0 8 1;
#X connect 15 0 16 0;
#X connect 16 0 0 0;
#X connect 16 1 1 0;
#X connect 16 2 2 0;
#X connect 21 0 9 0;
#X connect 24 0 21 0;
